<svg width="159" height="21" fill="none" xmlns="http://www.w3.org/2000/svg">
  <path fill-rule="evenodd" clip-rule="evenodd" d="M19.469 18.434h4.493V8.849h-4.493v9.585zM0 .001v18.433h4.792V4.47h19.17V0L0 .001z" fill="#34CB95"/>
  <path fill-rule="evenodd" clip-rule="evenodd" d="M9.734 18.434h4.493V8.849H9.734v9.585z" fill="#34CB95"/>
  <path d="M37.21 16.552c-1.626 0-2.953-.499-3.978-1.497-1.018-.998-1.528-2.328-1.528-3.989v-.287c0-1.114.216-2.109.646-2.984.43-.882 1.04-1.558 1.825-2.03.793-.479 1.696-.718 2.708-.718 1.517 0 2.71.479 3.578 1.436.875.957 1.313 2.314 1.313 4.07v1.21h-7.065c.095.725.383 1.306.861 1.744.485.437 1.097.656 1.836.656 1.141 0 2.033-.414 2.676-1.24l1.456 1.63c-.445.628-1.046 1.12-1.805 1.476-.759.349-1.6.523-2.522.523zm-.338-9.105c-.588 0-1.066.198-1.435.594-.363.397-.595.964-.698 1.702h4.123v-.235c-.014-.657-.192-1.162-.534-1.518-.342-.362-.827-.543-1.456-.543zM46.244 5.252l.093 1.241c.786-.964 1.849-1.446 3.189-1.446 1.428 0 2.41.564 2.942 1.692.78-1.128 1.89-1.692 3.333-1.692 1.203 0 2.099.352 2.686 1.056.588.698.882 1.75.882 3.159v7.085h-2.973V9.272c0-.63-.123-1.087-.37-1.374-.245-.294-.68-.441-1.302-.441-.888 0-1.504.424-1.845 1.271l.01 7.619h-2.964V9.282c0-.643-.126-1.107-.379-1.394-.253-.288-.684-.431-1.292-.431-.84 0-1.45.348-1.825 1.046v7.844h-2.964V5.252h2.78zM71.643 10.902c0 1.71-.39 3.08-1.169 4.112-.772 1.025-1.818 1.538-3.137 1.538-1.121 0-2.027-.39-2.718-1.169v5.23h-2.963V5.253h2.748l.103 1.086c.717-.861 1.654-1.292 2.81-1.292 1.366 0 2.43.506 3.188 1.518.759 1.011 1.138 2.406 1.138 4.183v.154zm-2.963-.215c0-1.032-.185-1.829-.554-2.39-.362-.56-.892-.84-1.59-.84-.929 0-1.568.355-1.917 1.066v4.543c.363.731 1.009 1.097 1.938 1.097 1.415 0 2.123-1.159 2.123-3.476zM73.028 10.697c0-1.1.211-2.081.635-2.943a4.663 4.663 0 011.826-2c.8-.471 1.725-.707 2.778-.707 1.497 0 2.718.458 3.66 1.374.951.916 1.48 2.16 1.59 3.733l.02.758c0 1.703-.474 3.07-1.425 4.102-.95 1.025-2.225 1.538-3.824 1.538-1.6 0-2.878-.513-3.835-1.538-.95-1.025-1.425-2.42-1.425-4.184v-.133zm2.963.215c0 1.053.198 1.86.595 2.42.396.554.963.83 1.702.83.718 0 1.278-.273 1.681-.82.404-.553.605-1.435.605-2.645 0-1.032-.201-1.832-.605-2.4-.403-.567-.97-.85-1.702-.85-.724 0-1.285.283-1.681.85-.397.561-.595 1.433-.595 2.615zM95.012 12.317l1.456-7.065h2.86l-2.83 11.095h-2.48l-2.103-6.983-2.102 6.983h-2.471l-2.83-11.095h2.86l1.447 7.055 2.03-7.055h2.143l2.02 7.065zM105.912 16.552c-1.627 0-2.953-.499-3.979-1.497-1.018-.998-1.528-2.328-1.528-3.989v-.287c0-1.114.216-2.109.646-2.984.431-.882 1.04-1.558 1.826-2.03.793-.479 1.695-.718 2.707-.718 1.517 0 2.71.479 3.578 1.436.875.957 1.313 2.314 1.313 4.07v1.21h-7.065c.096.725.383 1.306.861 1.744.486.437 1.097.656 1.836.656 1.141 0 2.033-.414 2.676-1.24l1.456 1.63c-.444.628-1.046 1.12-1.805 1.476-.759.349-1.599.523-2.522.523zm-.339-9.105c-.587 0-1.066.198-1.435.594-.362.397-.595.964-.697 1.702h4.122v-.235c-.014-.657-.192-1.162-.534-1.518-.341-.362-.827-.543-1.456-.543zM118.401 8.031a8.048 8.048 0 00-1.066-.082c-1.121 0-1.856.38-2.205 1.138v7.26h-2.963V5.252h2.799l.082 1.323c.595-1.019 1.418-1.528 2.471-1.528.328 0 .636.045.923.133l-.041 2.851z" fill="#1A202C"/>
  <path d="M119.99 14.89c0-.47.158-.854.472-1.148.321-.294.721-.44 1.2-.44.485 0 .885.146 1.2.44.321.294.481.677.481 1.149 0 .465-.157.844-.471 1.138-.315.287-.718.43-1.21.43-.486 0-.885-.143-1.2-.43-.314-.294-.472-.673-.472-1.138zM131.054 16.552c-1.627 0-2.953-.499-3.978-1.497-1.019-.998-1.528-2.328-1.528-3.989v-.287c0-1.114.215-2.109.646-2.984.431-.882 1.039-1.558 1.825-2.03.793-.479 1.696-.718 2.707-.718 1.518 0 2.711.479 3.579 1.436.875.957 1.312 2.314 1.312 4.07v1.21h-7.065c.096.725.383 1.306.862 1.744.485.437 1.097.656 1.835.656 1.142 0 2.034-.414 2.676-1.24l1.457 1.63c-.445.628-1.046 1.12-1.805 1.476-.759.349-1.6.523-2.523.523zm-.338-9.105c-.588 0-1.066.198-1.436.594-.362.397-.594.964-.697 1.702h4.122v-.235c-.013-.657-.191-1.162-.533-1.518-.342-.362-.827-.543-1.456-.543zM141.924 14.163c.546 0 .991-.15 1.333-.451.341-.301.519-.701.533-1.2h2.779a3.823 3.823 0 01-.616 2.071 4.1 4.1 0 01-1.661 1.456c-.697.342-1.47.513-2.317.513-1.586 0-2.837-.502-3.753-1.507-.916-1.012-1.374-2.406-1.374-4.184v-.195c0-1.709.454-3.072 1.364-4.091.909-1.019 2.156-1.528 3.742-1.528 1.388 0 2.499.397 3.333 1.19.841.786 1.268 1.835 1.282 3.148h-2.779c-.014-.575-.192-1.04-.533-1.395-.342-.362-.793-.543-1.354-.543-.69 0-1.213.253-1.569.758-.348.5-.523 1.313-.523 2.44v.308c0 1.142.175 1.962.523 2.461.349.5.879.749 1.59.749zM147.799 10.697c0-1.1.212-2.081.636-2.943a4.664 4.664 0 011.825-2c.8-.471 1.726-.707 2.779-.707 1.497 0 2.717.458 3.66 1.374.951.916 1.48 2.16 1.59 3.733l.02.758c0 1.703-.475 3.07-1.425 4.102-.95 1.025-2.225 1.538-3.825 1.538-1.599 0-2.878-.513-3.835-1.538-.95-1.025-1.425-2.42-1.425-4.184v-.133zm2.963.215c0 1.053.199 1.86.595 2.42.397.554.964.83 1.702.83.718 0 1.279-.273 1.682-.82.403-.553.605-1.435.605-2.645 0-1.032-.202-1.832-.605-2.4-.403-.567-.971-.85-1.702-.85-.725 0-1.285.283-1.682.85-.396.561-.595 1.433-.595 2.615z" fill="#34CB95"/>
</svg>